<svg xmlns="http://www.w3.org/2000/svg" width="1200" height="760" viewBox="0 0 1200 760" role="img" aria-labelledby="title desc">
  <title id="title">Sanitized QA/QC index preview</title>
  <desc id="desc">Representative QA/QC document automation output based on summary CSV and validation outputs with private filenames removed.</desc>
  <rect width="1200" height="760" rx="28" fill="#07131f"/>
  <rect x="24" y="24" width="1152" height="712" rx="22" fill="#f6f8fb"/>
  <g transform="translate(56 54)">
    <text x="0" y="22" fill="#2563eb" font-family="Inter, Arial" font-size="13" font-weight="900" letter-spacing="4">QA/QC AUTOMATION</text>
    <text x="0" y="60" fill="#07131f" font-family="Inter, Arial" font-size="34" font-weight="900">Document control cockpit</text>
    <text x="0" y="90" fill="#526179" font-family="Inter, Arial" font-size="17">Sanitized view of master index, coverage map, and validation outputs.</text>
  </g>
  <g transform="translate(56 150)">
    <rect width="1088" height="150" rx="18" fill="#07131f"/>
    <g font-family="Inter, Arial">
      <text x="28" y="40" fill="#8ca3b8" font-size="12" font-weight="900" letter-spacing="2">MASTER RECORDS</text>
      <text x="28" y="96" fill="#fff" font-size="48" font-weight="900">1,594</text>
      <text x="288" y="40" fill="#8ca3b8" font-size="12" font-weight="900" letter-spacing="2">SYSTEMS</text>
      <text x="288" y="96" fill="#fff" font-size="48" font-weight="900">98</text>
      <text x="510" y="40" fill="#8ca3b8" font-size="12" font-weight="900" letter-spacing="2">COVERAGE ROWS</text>
      <text x="510" y="96" fill="#fff" font-size="48" font-weight="900">13,351</text>
      <text x="820" y="40" fill="#8ca3b8" font-size="12" font-weight="900" letter-spacing="2">ANOMALIES</text>
      <text x="820" y="96" fill="#ffb020" font-size="48" font-weight="900">845</text>
    </g>
  </g>
  <g transform="translate(56 334)">
    <rect width="520" height="322" rx="18" fill="#fff" stroke="#d6e0eb"/>
    <text x="24" y="42" fill="#526179" font-family="Inter, Arial" font-size="13" font-weight="900" letter-spacing="3">MASTER INDEX</text>
    <g transform="translate(24 74)" font-family="Inter, Arial" font-size="13" font-weight="800">
      <rect width="472" height="42" rx="8" fill="#07131f"/><text x="16" y="27" fill="#fff">Document</text><text x="172" y="27" fill="#fff">System</text><text x="292" y="27" fill="#fff">Status</text><text x="390" y="27" fill="#fff">QA</text>
      <rect y="54" width="472" height="42" rx="8" fill="#f6f8fb"/><text x="16" y="81" fill="#07131f">Sample Asset</text><text x="172" y="81" fill="#526179">System A</text><text x="292" y="81" fill="#00894d">ready</text><text x="390" y="81" fill="#00894d">ok</text>
      <rect y="108" width="472" height="42" rx="8" fill="#f6f8fb"/><text x="16" y="135" fill="#07131f">Example File</text><text x="172" y="135" fill="#526179">System B</text><text x="292" y="135" fill="#8a5b00">review</text><text x="390" y="135" fill="#8a5b00">flag</text>
      <rect y="162" width="472" height="42" rx="8" fill="#f6f8fb"/><text x="16" y="189" fill="#07131f">Inspection Area 01</text><text x="172" y="189" fill="#526179">System C</text><text x="292" y="189" fill="#00894d">ready</text><text x="390" y="189" fill="#00894d">ok</text>
      <rect y="216" width="472" height="42" rx="8" fill="#f6f8fb"/><text x="16" y="243" fill="#07131f">Demo Record</text><text x="172" y="243" fill="#526179">System D</text><text x="292" y="243" fill="#2563eb">mapped</text><text x="390" y="243" fill="#00894d">ok</text>
    </g>
  </g>
  <g transform="translate(624 334)">
    <rect width="520" height="322" rx="18" fill="#fff" stroke="#d6e0eb"/>
    <text x="24" y="42" fill="#526179" font-family="Inter, Arial" font-size="13" font-weight="900" letter-spacing="3">COVERAGE MAP</text>
    <g transform="translate(24 74)">
      <rect width="472" height="54" rx="12" fill="#e9f7ef"/>
      <text x="18" y="34" fill="#07131f" font-family="Inter, Arial" font-size="15" font-weight="900">89 systems seeded</text>
      <rect y="70" width="472" height="54" rx="12" fill="#fff8e7"/>
      <text x="18" y="104" fill="#07131f" font-family="Inter, Arial" font-size="15" font-weight="900">9 coverage gaps controlled</text>
      <rect y="140" width="472" height="54" rx="12" fill="#e9f1ff"/>
      <text x="18" y="174" fill="#07131f" font-family="Inter, Arial" font-size="15" font-weight="900">10,338 document-system rows</text>
      <g transform="translate(0 224)">
        <rect width="84" height="18" rx="9" fill="#13b981"/><rect x="96" width="134" height="18" rx="9" fill="#2563eb"/><rect x="242" width="72" height="18" rx="9" fill="#ffb020"/><rect x="326" width="146" height="18" rx="9" fill="#d6e0eb"/>
        <text x="0" y="52" fill="#526179" font-family="Inter, Arial" font-size="13" font-weight="800">ready / mapped / review / backlog</text>
      </g>
    </g>
  </g>
</svg>
