<svg xmlns="http://www.w3.org/2000/svg" width="1200" height="760" viewBox="0 0 1200 760" role="img" aria-labelledby="title desc">
  <title id="title">Sanitized SolarTrack dashboard preview</title>
  <desc id="desc">Representative dashboard preview based on the SolarTrack organizer structure with sanitized demo values.</desc>
  <defs>
    <linearGradient id="solar-bg" x1="0" x2="1" y1="0" y2="1">
      <stop offset="0" stop-color="#fff7e7"/>
      <stop offset="1" stop-color="#e7fff4"/>
    </linearGradient>
    <filter id="shadow" x="-20%" y="-20%" width="140%" height="140%">
      <feDropShadow dx="0" dy="18" stdDeviation="18" flood-color="#0d1b2a" flood-opacity=".18"/>
    </filter>
  </defs>
  <rect width="1200" height="760" rx="28" fill="#07131f"/>
  <rect x="24" y="24" width="1152" height="712" rx="22" fill="url(#solar-bg)"/>
  <g transform="translate(56 54)">
    <rect width="1088" height="78" rx="16" fill="#06131f"/>
    <text x="26" y="32" fill="#7dd3fc" font-family="Inter, Arial" font-size="13" font-weight="800" letter-spacing="4">SOLARTRACK</text>
    <text x="26" y="58" fill="#fff" font-family="Inter, Arial" font-size="26" font-weight="900">Field visits command board</text>
    <rect x="836" y="18" width="226" height="42" rx="10" fill="#ffb020"/>
    <text x="866" y="45" fill="#07131f" font-family="Inter, Arial" font-size="14" font-weight="900">Demo Location - synced</text>
  </g>
  <g transform="translate(56 164)" filter="url(#shadow)">
    <rect width="318" height="486" rx="18" fill="#ffffff"/>
    <text x="24" y="36" fill="#526179" font-family="Inter, Arial" font-size="13" font-weight="900" letter-spacing="3">TODAY</text>
    <text x="24" y="74" fill="#07131f" font-family="Inter, Arial" font-size="42" font-weight="900">Site A</text>
    <text x="24" y="104" fill="#526179" font-family="Inter, Arial" font-size="17">Visit queue and report status</text>
    <g transform="translate(24 142)">
      <rect width="270" height="78" rx="13" fill="#f2f7f4" stroke="#d9e3df"/>
      <text x="18" y="28" fill="#526179" font-family="Inter, Arial" font-size="12" font-weight="800" letter-spacing="2">ACTIVE VISITS</text>
      <text x="18" y="60" fill="#07131f" font-family="Inter, Arial" font-size="34" font-weight="900">24</text>
    </g>
    <g transform="translate(24 238)">
      <rect width="270" height="78" rx="13" fill="#fff8e7" stroke="#eadbb8"/>
      <text x="18" y="28" fill="#526179" font-family="Inter, Arial" font-size="12" font-weight="800" letter-spacing="2">PENDING REPORTS</text>
      <text x="18" y="60" fill="#07131f" font-family="Inter, Arial" font-size="34" font-weight="900">6</text>
    </g>
    <g transform="translate(24 344)">
      <text x="0" y="0" fill="#526179" font-family="Inter, Arial" font-size="12" font-weight="800" letter-spacing="2">QUICK ACTIONS</text>
      <rect y="20" width="124" height="44" rx="10" fill="#07131f"/>
      <text x="24" y="48" fill="#fff" font-family="Inter, Arial" font-size="13" font-weight="800">Calendar</text>
      <rect x="142" y="20" width="128" height="44" rx="10" fill="#13b981"/>
      <text x="172" y="48" fill="#06131f" font-family="Inter, Arial" font-size="13" font-weight="900">Reports</text>
    </g>
  </g>
  <g transform="translate(410 164)" filter="url(#shadow)">
    <rect width="734" height="486" rx="18" fill="#ffffff"/>
    <g transform="translate(24 24)">
      <rect width="210" height="82" rx="14" fill="#07131f"/>
      <text x="18" y="30" fill="#7dd3fc" font-family="Inter, Arial" font-size="12" font-weight="900" letter-spacing="2">VISITS</text>
      <text x="18" y="64" fill="#fff" font-family="Inter, Arial" font-size="34" font-weight="900">24</text>
      <rect x="238" width="210" height="82" rx="14" fill="#f4f7fb" stroke="#d8e1ee"/>
      <text x="256" y="30" fill="#526179" font-family="Inter, Arial" font-size="12" font-weight="900" letter-spacing="2">COMPLETED</text>
      <text x="256" y="64" fill="#07131f" font-family="Inter, Arial" font-size="34" font-weight="900">18</text>
      <rect x="476" width="210" height="82" rx="14" fill="#fff7e7" stroke="#eadbb8"/>
      <text x="494" y="30" fill="#526179" font-family="Inter, Arial" font-size="12" font-weight="900" letter-spacing="2">OPEN</text>
      <text x="494" y="64" fill="#07131f" font-family="Inter, Arial" font-size="34" font-weight="900">6</text>
    </g>
    <g transform="translate(24 136)">
      <rect width="310" height="276" rx="16" fill="#f8fbfd" stroke="#d8e1ee"/>
      <text x="20" y="36" fill="#07131f" font-family="Inter, Arial" font-size="16" font-weight="900">Visit calendar</text>
      <g transform="translate(20 62)">
        <rect width="270" height="190" rx="12" fill="#fff"/>
        <g fill="#e6edf3">
          <rect x="14" y="16" width="32" height="32" rx="7"/><rect x="54" y="16" width="32" height="32" rx="7"/><rect x="94" y="16" width="32" height="32" rx="7"/><rect x="134" y="16" width="32" height="32" rx="7"/><rect x="174" y="16" width="32" height="32" rx="7"/><rect x="214" y="16" width="32" height="32" rx="7"/>
          <rect x="14" y="58" width="32" height="32" rx="7"/><rect x="54" y="58" width="32" height="32" rx="7"/><rect x="94" y="58" width="32" height="32" rx="7"/><rect x="134" y="58" width="32" height="32" rx="7"/><rect x="174" y="58" width="32" height="32" rx="7"/><rect x="214" y="58" width="32" height="32" rx="7"/>
          <rect x="14" y="100" width="32" height="32" rx="7"/><rect x="54" y="100" width="32" height="32" rx="7"/><rect x="94" y="100" width="32" height="32" rx="7"/><rect x="134" y="100" width="32" height="32" rx="7"/><rect x="174" y="100" width="32" height="32" rx="7"/><rect x="214" y="100" width="32" height="32" rx="7"/>
        </g>
        <g fill="#8ef0bf">
          <rect x="14" y="16" width="32" height="32" rx="7"/><rect x="94" y="58" width="32" height="32" rx="7"/><rect x="174" y="100" width="32" height="32" rx="7"/>
        </g>
        <g fill="#ffdc70">
          <rect x="174" y="16" width="32" height="32" rx="7"/><rect x="54" y="100" width="32" height="32" rx="7"/>
        </g>
      </g>
    </g>
    <g transform="translate(366 136)">
      <rect width="344" height="276" rx="16" fill="#f8fbfd" stroke="#d8e1ee"/>
      <text x="20" y="36" fill="#07131f" font-family="Inter, Arial" font-size="16" font-weight="900">Report queue</text>
      <g transform="translate(20 62)" font-family="Inter, Arial" font-size="14" font-weight="800">
        <rect width="304" height="52" rx="10" fill="#fff"/>
        <text x="16" y="32" fill="#07131f">Example Report</text><rect x="232" y="14" width="54" height="24" rx="12" fill="#ffe5a3"/><text x="246" y="31" fill="#704900" font-size="11">open</text>
        <rect y="68" width="304" height="52" rx="10" fill="#fff"/>
        <text x="16" y="100" fill="#07131f">Site A follow-up</text><rect x="232" y="82" width="54" height="24" rx="12" fill="#c9f7dd"/><text x="250" y="99" fill="#05623b" font-size="11">ok</text>
        <rect y="136" width="304" height="52" rx="10" fill="#fff"/>
        <text x="16" y="168" fill="#07131f">Client Demo visit</text><rect x="232" y="150" width="54" height="24" rx="12" fill="#c9f7dd"/><text x="250" y="167" fill="#05623b" font-size="11">ok</text>
      </g>
    </g>
  </g>
</svg>
